<svg xmlns="http://www.w3.org/2000/svg" version="1.1" xmlns:xlink="http://www.w3.org/1999/xlink" xmlns:svgjs="http://svgjs.com/svgjs" width="1500" height="1000" preserveAspectRatio="none" viewBox="0 0 1500 1000"><g mask="url(&quot;#SvgjsMask1579&quot;)" fill="none"><rect width="1500" height="1000" x="0" y="0" fill="url(#SvgjsRadialGradient1580)"></rect><path d="M1543.273,1206.244C1606.599,1201.988,1654.501,1156.943,1687.766,1102.89C1723.23,1045.262,1754.521,975.628,1721.564,916.531C1688.057,856.448,1612.023,841.332,1543.273,843.793C1479.423,846.079,1420.602,874.968,1385.8,928.549C1347.284,987.848,1325.825,1063.365,1360.705,1124.873C1395.931,1186.991,1472.023,1211.033,1543.273,1206.244" fill="rgba(28, 83, 142, 0.4)" class="triangle-float1"></path><path d="M98.8355586243483 490.15927328510793L179.96062799195542 289.3676806108585-20.830964682294024 208.24261124325136-101.95603404990115 409.0342039175008z" fill="rgba(28, 83, 142, 0.4)" class="triangle-float3"></path><path d="M335.84026039441994 199.63379693507085L361.13797356563987 359.35727178767513 520.8614484182441 334.0595586164552 495.56373524702417 174.33608376385092z" fill="rgba(28, 83, 142, 0.4)" class="triangle-float3"></path><path d="M1670.3637499580288 389.0392948751124L1412.2954905748877 274.1399030300942 1297.3960987298697 532.2081624132354 1555.4643581130106 647.1075542582535z" fill="rgba(28, 83, 142, 0.4)" class="triangle-float3"></path><path d="M-34.7336981502125-117.61993271743145L-45.409277606195545 86.08225810288423 158.29291321412015 96.75783755886727 168.9684926701032-106.94435326144841z" fill="rgba(28, 83, 142, 0.4)" class="triangle-float1"></path><path d="M575.8111253163657 175.94229008682717L797.3710786748537 215.0092877084376 836.4380762964641-6.550665650050405 614.8781229379762-45.61766327166083z" fill="rgba(28, 83, 142, 0.4)" class="triangle-float3"></path><path d="M662.422,601.948C731.779,598.955,780.777,540.632,813.015,479.149C842.571,422.781,851.611,356.467,820.146,301.142C788.35,245.235,726.706,212.318,662.422,214.357C601.37,216.294,553.59,258.884,521.129,310.628C485.884,366.811,458.556,433.521,487.499,493.196C519.612,559.406,588.903,605.121,662.422,601.948" fill="rgba(28, 83, 142, 0.4)" class="triangle-float1"></path><path d="M572.3819495656624 374.50814474276115L651.3145185381818 269.7610878305833 454.72764868365533 203.7357628278931z" fill="rgba(28, 83, 142, 0.4)" class="triangle-float1"></path><path d="M960.5299746000738 462.89389074886117L872.4922655388903 265.15795870716255 674.7563334971917 353.19566776834614 762.7940425583752 550.9315998100448z" fill="rgba(28, 83, 142, 0.4)" class="triangle-float1"></path><path d="M-8.996,602.407C28.429,601.179,61.243,578.854,79.413,546.113C97.037,514.358,96.796,475.927,78.66,444.461C60.501,412.955,27.362,392.028,-8.996,392.723C-44.272,393.398,-72.419,417.733,-91.031,447.707C-110.996,479.86,-125.791,518.827,-108.06,552.264C-89.476,587.31,-48.643,603.708,-8.996,602.407" fill="rgba(28, 83, 142, 0.4)" class="triangle-float2"></path><path d="M1158.136,841.975C1193.386,840.833,1220.851,815.308,1238.655,784.864C1256.672,754.055,1265.311,717.615,1249.604,685.567C1231.962,649.572,1198.221,620.925,1158.136,620.581C1117.564,620.233,1082.927,648.135,1063.912,683.976C1046.081,717.586,1048.56,757.712,1068.047,790.389C1087.044,822.244,1121.066,843.175,1158.136,841.975" fill="rgba(28, 83, 142, 0.4)" class="triangle-float2"></path><path d="M1314.4711009442717 189.87422505159975L1353.7767929376 512.5352669069508 1583.652153792163 345.52104110553205z" fill="rgba(28, 83, 142, 0.4)" class="triangle-float1"></path><path d="M1476.632,1360.849C1574.001,1367.32,1672.119,1317.677,1716.928,1230.989C1759.009,1149.578,1719.308,1057.957,1674.524,978.001C1628.284,895.446,1570.999,808.929,1476.632,801.973C1372.283,794.281,1265.806,850.093,1220.815,944.558C1179.969,1030.321,1236.214,1121.412,1285.949,1202.345C1332.33,1277.82,1388.24,1354.974,1476.632,1360.849" fill="rgba(28, 83, 142, 0.4)" class="triangle-float2"></path><path d="M162.25914257665787 97.54050160447535L70.95376236881893 46.92910290893373 40.689354429425975 209.19287256846295z" fill="rgba(28, 83, 142, 0.4)" class="triangle-float1"></path><path d="M261.878,516.659C350.798,510.525,439.607,481.904,485.108,405.262C531.482,327.15,525.911,228.814,478.923,151.07C433.518,75.945,349.64,37.673,261.878,35.916C170.539,34.087,81.728,67.293,29.241,142.067C-32.856,230.532,-78.956,348.421,-21.933,440.239C33.466,529.443,157.12,523.885,261.878,516.659" fill="rgba(28, 83, 142, 0.4)" class="triangle-float1"></path><path d="M431.215,1196.275C518.934,1190.086,580.874,1120.288,624.584,1043.984C667.958,968.266,697.448,879.298,657.123,801.914C614.172,719.492,524.157,672.772,431.215,672.909C338.511,673.046,255.005,723.602,206.458,802.578C155.305,885.794,135.578,990.237,184.007,1075.068C232.775,1160.492,333.095,1203.198,431.215,1196.275" fill="rgba(28, 83, 142, 0.4)" class="triangle-float1"></path><path d="M357.50109028890984 1009.5908651399263L372.34732750758445 868.3383534676112 153.04544138977454 916.6952534757568z" fill="rgba(28, 83, 142, 0.4)" class="triangle-float1"></path><path d="M1075.266,1145.641C1140.089,1142.417,1201.79,1119.376,1238.458,1065.823C1280.993,1003.701,1309.144,923.502,1272.331,857.828C1234.968,791.172,1151.68,774.534,1075.266,774.686C999.188,774.838,920.013,794.182,879.557,858.612C836.814,926.684,836.022,1017.177,881.303,1083.588C922.29,1143.7,1002.6,1149.256,1075.266,1145.641" fill="rgba(28, 83, 142, 0.4)" class="triangle-float3"></path><path d="M299.04526923232027-65.5405792932258L51.48809795369459-3.817644188818818 113.21103305810158 243.73952708980687 360.76820433672725 182.01659198539988z" fill="rgba(28, 83, 142, 0.4)" class="triangle-float1"></path><path d="M333.203,969.429C423.009,965.669,498.923,906.213,540.137,826.334C578.026,752.898,569.169,666.015,526.152,595.461C484.979,527.932,412.211,490.555,333.203,486.929C246.389,482.945,155.22,503.968,106.934,576.224C53.515,656.162,45.954,761.686,93.907,845.018C141.966,928.534,236.931,973.46,333.203,969.429" fill="rgba(28, 83, 142, 0.4)" class="triangle-float3"></path></g><defs><mask id="SvgjsMask1579"><rect width="1500" height="1000" fill="#ffffff"></rect></mask><radialGradient cx="50%" cy="50%" r="901.39" gradientUnits="userSpaceOnUse" id="SvgjsRadialGradient1580"><stop stop-color="#0e2a47" offset="0"></stop><stop stop-color="rgba(0, 0, 0, 1)" offset="1"></stop></radialGradient><style>
            @keyframes float1 {
                0%{transform: translate(0, 0)}
                50%{transform: translate(-10px, 0)}
                100%{transform: translate(0, 0)}
            }

            .triangle-float1 {
                animation: float1 5s infinite;
            }

            @keyframes float2 {
                0%{transform: translate(0, 0)}
                50%{transform: translate(-5px, -5px)}
                100%{transform: translate(0, 0)}
            }

            .triangle-float2 {
                animation: float2 4s infinite;
            }

            @keyframes float3 {
                0%{transform: translate(0, 0)}
                50%{transform: translate(0, -10px)}
                100%{transform: translate(0, 0)}
            }

            .triangle-float3 {
                animation: float3 6s infinite;
            }
        </style></defs></svg>